<svg xmlns="http://www.w3.org/2000/svg" viewBox="0 0 45 45"><defs><clipPath id="a" clipPathUnits="userSpaceOnUse"><path d="M0 36h36V0H0v36z"/></clipPath></defs><g clip-path="url(#a)" transform="matrix(1.25 0 0 -1.25 0 45)" fill="#222"><path d="M14.182 35.833l-6.363-1.301c-.45-.093-.82-.544-.82-1.003V17.672A6.194 6.194 0 015 18c-2.76 0-5-1.741-5-3.888 0-2.148 2.24-3.89 5-3.89 2.714 0 4.91 1.684 4.987 3.778H10v15.523l4.182.855c.45.093.818.544.818 1.003v3.785c0 .459-.368.759-.818.667M35.182 31.832l-6.363-1.3c-.45-.093-.82-.544-.82-1.003V13.672A6.198 6.198 0 0126 14c-2.76 0-5-1.741-5-3.888 0-2.148 2.24-3.89 5-3.89 2.714 0 4.91 1.684 4.987 3.778H31v15.523l4.182.855c.45.093.818.544.818 1.003v3.785c0 .459-.368.759-.818.667"/><path d="M23.182 25.832l-6.363-1.3c-.45-.093-.82-.544-.82-1.003V7.672A6.194 6.194 0 0114 8c-2.76 0-5-1.741-5-3.888 0-2.148 2.24-3.89 5-3.89 2.714 0 4.91 1.684 4.987 3.778H19v15.523l4.182.855c.45.093.818.544.818 1.003v3.785c0 .459-.368.759-.818.667"/></g></svg>