<svg xmlns="http://www.w3.org/2000/svg" width="252" height="254" viewBox="0 0 66.675 67.204"><g paint-order="markers stroke fill"><path d="M-.397 67.337L67.338-.397l4.365 4.366L3.97 71.702z" fill="#ae5875"/><path d="M-4.63 63.103l67.6-67.866 4.5 4.498L-.265 67.47z" fill="#c46376"/><path d="M-8.996 58.605L58.87-8.862l4.365 4.365-67.733 67.733z" fill="#d76d77"/><path d="M-13.097 54.637l67.735-67.734 4.365 4.366L-8.73 59.002z" fill="#de7978"/><path d="M-17.33 50.403L50.403-17.33l4.366 4.365-67.734 67.734z" fill="#e58478"/><path d="M-21.563 46.17L46.17-21.562l4.365 4.365-67.733 67.733z" fill="#eb8e79"/><path d="M-25.797 41.937L41.805-25.93l4.498 4.499-67.733 67.733z" fill="#f1997a"/><path d="M-30.03 37.703L37.703-30.03l4.366 4.365-67.734 67.734z" fill="#f9a47a"/><path d="M-34.263 33.47L33.47-34.262l4.365 4.365-67.733 67.733z" fill="#fead7b"/><path d="M3.837 71.57L71.57 3.838l4.365 4.365L8.202 75.935z" fill="#a05075"/><path d="M8.07 75.803L75.803 8.07l4.366 4.365L12.435 80.17z" fill="#904874"/><path d="M12.303 80.037l67.735-67.734 4.365 4.366L16.67 84.402z" fill="#844274"/><path d="M16.537 84.27L84.27 16.538l4.365 4.365-67.733 67.733z" fill="#723973"/><path d="M20.77 88.503L88.503 20.77l4.366 4.365L25.135 92.87z" fill="#5f2f72"/><path d="M25.003 92.737l67.735-67.734 4.365 4.366L29.37 97.102z" fill="#512872"/><path d="M29.237 96.97L96.97 29.238l4.497 4.497-67.733 67.733z" fill="#462371"/></g></svg>