<?xml version="1.0" encoding="UTF-8" standalone="no"?>
<svg
   xmlns:dc="http://purl.org/dc/elements/1.1/"
   xmlns:cc="http://creativecommons.org/ns#"
   xmlns:rdf="http://www.w3.org/1999/02/22-rdf-syntax-ns#"
   xmlns:svg="http://www.w3.org/2000/svg"
   xmlns="http://www.w3.org/2000/svg"
   xmlns:sodipodi="http://sodipodi.sourceforge.net/DTD/sodipodi-0.dtd"
   xmlns:inkscape="http://www.inkscape.org/namespaces/inkscape"
   viewBox="0 0 45 45"
   version="1.1"
   id="svg8"
   sodipodi:docname="headphones-shaped.svg"
   inkscape:version="0.92.4 (5da689c313, 2019-01-14)"
   width="45"
   height="45">
  <metadata
     id="metadata14">
    <rdf:RDF>
      <cc:Work
         rdf:about="">
        <dc:format>image/svg+xml</dc:format>
        <dc:type
           rdf:resource="http://purl.org/dc/dcmitype/StillImage" />
        <dc:title></dc:title>
      </cc:Work>
    </rdf:RDF>
  </metadata>
  <defs
     id="defs12" />
  <sodipodi:namedview
     pagecolor="#ffffff"
     bordercolor="#666666"
     borderopacity="1"
     objecttolerance="10"
     gridtolerance="10"
     guidetolerance="10"
     inkscape:pageopacity="0"
     inkscape:pageshadow="2"
     inkscape:window-width="1440"
     inkscape:window-height="877"
     id="namedview10"
     showgrid="false"
     inkscape:zoom="16"
     inkscape:cx="17.833391"
     inkscape:cy="22.247624"
     inkscape:window-x="0"
     inkscape:window-y="0"
     inkscape:window-maximized="1"
     inkscape:current-layer="svg8"
     inkscape:snap-global="true"
     inkscape:snap-bbox="true"
     inkscape:bbox-nodes="true"
     inkscape:snap-page="true" />
  <g
     id="g246"
     transform="translate(0.11048525,-0.326307)">
    <path
       inkscape:connector-curvature="0"
       id="path207"
       d="m 16.948238,34.238869 c 0,1.126902 -1.306352,2.041488 -2.915962,2.041488 h -2.915962 c -1.6096103,0 -2.9159615,-0.914586 -2.9159615,-2.041488 V 25.05217 c 0,-1.126902 1.3063512,-2.041489 2.9159615,-2.041489 h 2.915962 c 1.60961,0 2.915962,0.914587 2.915962,2.041489 z"
       style="fill:#ffffff;stroke-width:0.88420498" />
    <path
       inkscape:connector-curvature="0"
       id="path4"
       d="m 36.578677,34.238869 c 0,1.126902 -1.308463,2.041488 -2.920677,2.041488 h -2.920675 c -1.612212,0 -2.920676,-0.914586 -2.920676,-2.041488 V 25.05217 c 0,-1.126902 1.308464,-2.041489 2.920676,-2.041489 H 33.658 c 1.612214,0 2.920677,0.914587 2.920677,2.041489 z"
       style="fill:#ffffff;stroke-width:0.85568774" />
    <path
       id="path198"
       d="M 11.6769,29.445568 V 22.101796 A 10.729538,10.729538 0 0 1 22.406439,11.372257 10.729538,10.729538 0 0 1 33.135977,22.101796 v 7.343772"
       style="opacity:1;fill:none;fill-opacity:1;fill-rule:nonzero;stroke:#ffffff;stroke-width:4;stroke-linecap:round;stroke-linejoin:round;stroke-miterlimit:4;stroke-dasharray:none;stroke-dashoffset:0;stroke-opacity:1;paint-order:fill markers stroke"
       inkscape:connector-curvature="0" />
  </g>
</svg>
