<svg xmlns="http://www.w3.org/2000/svg" viewBox="0 0 45 45"><defs><clipPath id="a" clipPathUnits="userSpaceOnUse"><path d="M0 36h36V0H0v36z"/></clipPath></defs><g clip-path="url(#a)" transform="matrix(1.25 0 0 -1.25 0 45)"><path d="M15.768 21.2c0 1.489.931 2.48 2.232 2.48 1.303 0 2.232-.991 2.232-2.48V9.296c0-1.488-.929-2.48-2.232-2.48-1.3 0-2.232.992-2.232 2.48V21.2zm4.744 6.729c0-1.395-1.116-2.573-2.512-2.573-1.333 0-2.51 1.209-2.51 2.573 0 1.27 1.177 2.45 2.51 2.45 1.334 0 2.512-1.147 2.512-2.45" fill="#fff"/></g></svg>
