<svg xmlns="http://www.w3.org/2000/svg" width="252" height="254" viewBox="0 0 66.675 67.204"><g paint-order="markers stroke fill"><path d="M-.265 67.469L67.47-.265l4.233 4.234L3.97 71.702z" fill="#ae5875"/><path d="M-4.498 63.235L63.235-4.498 67.47-.265-.265 67.47z" fill="#c46376"/><path d="M-8.731 59.002L59.002-8.73l4.233 4.233-67.733 67.733z" fill="#d76d77"/><path d="M-12.965 54.769L54.77-12.965l4.233 4.234L-8.73 59.002z" fill="#de7978"/><path d="M-17.198 50.535l67.733-67.733 4.234 4.233-67.734 67.734z" fill="#e58478"/><path d="M-21.431 46.302L46.302-21.43l4.233 4.233-67.733 67.733z" fill="#eb8e79"/><path d="M-25.665 42.069L42.07-25.665l4.233 4.234-67.733 67.733z" fill="#f1997a"/><path d="M-29.898 37.835l67.733-67.733 4.234 4.233-67.734 67.734z" fill="#f9a47a"/><path d="M-34.131 33.602L33.602-34.13l4.233 4.233-67.733 67.733z" fill="#fead7b"/><path d="M3.969 71.702L71.702 3.97l4.233 4.233L8.202 75.935z" fill="#a05075"/><path d="M8.202 75.935L75.935 8.202l4.234 4.233L12.435 80.17z" fill="#904874"/><path d="M12.435 80.169L80.17 12.435l4.233 4.234L16.67 84.402z" fill="#844274"/><path d="M16.669 84.402L84.402 16.67l4.233 4.233-67.733 67.733z" fill="#723973"/><path d="M20.902 88.635l67.733-67.733 4.234 4.233L25.135 92.87z" fill="#5f2f72"/><path d="M25.135 92.869L92.87 25.135l4.233 4.234L29.37 97.102z" fill="#512872"/><path d="M29.369 97.102L97.102 29.37l4.233 4.233-67.733 67.733z" fill="#462371"/></g></svg>