<svg version="1" xmlns="http://www.w3.org/2000/svg" width="666.667" height="666.667" viewBox="0 0 500.000000 500.000000"><path d="M146.8 7.2c-2.3 4-6.4 11.7-9.1 17.1-2.7 5.3-5.7 10.1-6.6 10.7-1.6.8-3.1 3.7-6.1 11.8-.7 1.8-2 3.8-2.9 4.5-.9.7-2.7 4.8-4.1 9.2-2.1 7.3-8.9 24.8-10.9 28.6-1 1.7-7.5 17.1-7.6 17.9-.1.3-1.1 2.7-2.3 5.4-1.2 2.7-2.2 5.5-2.2 6.2 0 .8-.4 1.4-1 1.4-.5 0-1 .9-1 2 0 1-.9 2.4-2 3-4.2 2.3-19.3 13.9-26 20-2.5 2.2-5.7 4.3-7.3 4.7-1.5.3-2.7.8-2.7 1.2 0 .3-1.6 1.7-3.6 3-5.8 4-6.1 6.4-1.7 13 2.1 3.1 4.3 6.9 5 8.5 2.7 6.1 11.5 19.7 13.5 20.7 1.1.6 3.8.8 5.8.5 3.3-.5 3.8-.3 3.4 1.2-.2.9-.6 4.2-.8 7.2-.2 3-1.4 8.2-2.5 11.4-1.2 3.3-1.9 6.1-1.7 6.4.3.2.1 1.4-.3 2.6-.5 1.2-1.2 4.4-1.5 7.1-.4 2.8-.9 6.8-1.2 9-.9 7.7-4.6 29-5.1 29.8-.2.4-.6 1.8-.9 3.2-.6 3.4-7.7 23.7-11.2 32-3.9 9.5-10.5 23.9-17.8 39.2-1.9 3.9-3.4 7.4-3.4 7.7 0 .2-1.4 3.4-3 7-8.3 18-17.3 43.5-19.5 55.8-.3 1.5-1 3.9-1.5 5.4-.6 1.5-.8 2.9-.6 3.1.3.3.1 1.5-.4 2.8-2.3 6.2-2.7 30.5-.6 42 .5 3.1.1 6.3-1.9 13-1.4 5-2.9 10.9-3.2 13.2l-.6 4.3h28.1l.7-4.3c.3-2.3 1.5-6.7 2.5-9.7l1.9-5.5-.2 9.8-.3 9.7h367.9l-.6-10.3c-.3-5.6-.8-11.7-1.1-13.5-.3-1.8-.8-5.2-1.1-7.5-1.1-7.7-1.6-10.2-2.7-14.2-.6-2.2-1.1-4.8-1-5.8 0-.9-.4-1.7-.9-1.7-.6 0-.7-.5-.4-1 .4-.6.1-1.7-.5-2.5-.7-.8-.9-1.5-.5-1.5s.2-.6-.4-1.3c-.6-.8-.9-1.6-.6-1.9.3-.2-.7-3.7-2.1-7.8-3.8-10.9-2.4-11.7 2.5-1.5 5.1 10.6 8.3 17.6 8.7 19 .1.5.9 2.9 1.8 5.3 1.7 4.6 5.4 22.8 6.2 30.2 1.7 16.8 1.2 16 10 16 4.5 0 7.4-.4 7.4-1.1 0-1.3-4.6-17.8-6-21.5-.8-2.1-.7-3.5.4-5.8 3.3-7.2 4.3-13.1 4-24.1-.1-6.1-.5-12.1-.9-13.5-.3-1.4-.8-3.6-1.1-5-1.8-9.1-7.6-24.4-19.5-51.7-8.2-18.7-8.5-19.8-9.4-31.6-.2-3.7-.6-7.1-.8-7.5-.3-.4-.8-3.4-1.1-6.7-.4-3.3-.9-7.4-1.1-9-1.1-6.8-1.3-8.1-1.8-10.5-1.4-6.6-.9-10 2.3-13.5 5.2-5.7 13.4-25.7 14.6-35.3 1.1-9.4.6-30.4-1-40.2-.2-1.4-.8-4.8-1.2-7.5-.4-2.8-.8-5.5-.9-6-.3-1.1-2.8-12.7-3-13.5-1.3-5.8-6.7-21.8-8.6-25.2-.5-1-.9-2.5-.9-3.3 0-.8-.4-1.5-1-1.5-.5 0-1-.6-1-1.3 0-.6-2.2-5.7-4.9-11.2l-4.8-10 1.9-3c1-1.6 1.8-4 1.8-5.3 0-2.6-7.8-19.3-12.7-27-1.8-2.9-3.3-5.7-3.3-6.3 0-.6 1.9-3.1 4.3-5.6 8-8.4 14.2-15.2 16.4-18C391 71.4 398 61.8 398 61.4c0-.3.9-1.5 2-2.7 1.2-1.2 2.7-3.3 3.4-4.7 2.6-5.1 14.5-23.9 16.3-25.8 1-1 2.5-2.9 3.3-4.2 2.3-3.6 11.6-12.6 15-14.6 1.6-1 3-2.5 3-3.2 0-1.5-6.5-1.1-14.5 1-5.2 1.3-7.1 1.7-12.5 2.4-2.5.3-5.8.8-7.5 1-1.6.3-5.9.7-9.5 1-9.2.6-10.3.8-22.5 4.2-6 1.7-12.3 3.4-14 3.6-1.6.3-5 1.1-7.5 1.7-2.5.6-8.8 1.2-14 1.4-12.7.5-28.1 1.8-35.9 3-2 .3-8.1 1.7-13.6 3.1-5.5 1.4-10.9 2.8-12 3-7.8 1.7-22 2-28 .7-6.1-1.4-24-.6-30.2 1.3-2.7.8-3.9-1.7-4.1-8.6-.3-5.8-2.1-17.6-3.3-21.8L210.8 0h-59.7l-4.3 7.2zm-58 128c-.5 1.8-1.2 4.2-1.5 5.4-.3 1.5-3.8 3.8-11.4 7.8-9.8 5.2-10.9 5.5-10.9 3.7 0-1.2.4-2.1.9-2.1.4 0 1.9-1 3.2-2.3 1.3-1.2 4-3.5 5.9-5 1.9-1.5 5.8-4.5 8.5-6.7 2.8-2.2 5.3-4 5.7-4 .4 0 .2 1.5-.4 3.2zm297.5 52c.3 1.3 1.8 5.4 3.4 9.3 3.1 7.2 4.4 10.6 4.5 11.5 0 .3 1.2 4.5 2.5 9.5 1.4 4.9 2.6 11.5 2.6 14.5.1 8.2-1.3 25.1-2.2 26.9-.5.9-.9 2-1 2.6-.4 4.4-4.8 15.3-5.2 13-.8-4.4-1-9.5-1.4-35-.2-16-.6-29.9-.8-31-.2-1.1-.7-3.8-1.2-6-.4-2.2-1.4-6.5-2.1-9.5-.8-3-1.4-6-1.4-6.7 0-2.2 1.7-1.4 2.3.9zm-5.3 84.4c0 1.1.3 2.4.7 2.7.8.9 1 8.8.2 9.3-.6.4-1.8-1.6-2.5-4.1-1.9-7.5-3.4-14.5-3.3-16.5 0-2.1.3-1.8 2.4 2 1.3 2.5 2.4 5.4 2.5 6.6zm-304.9-8.4c.4 4.3-.8 30.6-1.6 34.6-.2 1.2-.6 5.2-.9 8.9-.6 6.5-1.4 13.1-2.2 16.3-1.1 5.1-3.6 13.8-4.4 15.5-.5 1.1-3.4 9-6.6 17.5-3.1 8.5-8 19.8-10.7 25-4.9 9.1-11.2 21.4-28 54.7-4.2 8.4-7.7 15.8-7.7 16.5 0 .7-.5 2-1.1 2.8-1.5 2.2.4-27.3 2.3-34.5.5-2.2 1.2-4.8 1.3-5.7.5-2.6 3.7-13.1 4.6-15.3.5-1.1 2.4-6.1 4.3-11 5.6-14.8 8.7-22.7 11.2-28.3 1.3-2.9 2.4-5.5 2.4-5.7 0-.3 2.3-5.2 5.1-11 2.8-5.7 5-10.7 5-10.9 0-.3 1.4-3.2 3.2-6.3 4.4-7.8 9-18.1 12.8-28.3 4.9-13.4 10.3-33.5 9.3-35.1-.3-.5 0-.9.5-.9.6 0 1.2.6 1.2 1.2zM377.6 285c.9 4.1 2.1 8.1 2.7 8.8 1.2 1.5.4 7-1.9 11.7-1.8 3.8-3 3.6-3.8-.5-.2-1.4-.5-2.5-.6-2.5-.1 0-.3-.9-.4-2-.1-1.1-.6-3.8-1.1-6-.5-2.2-.8-4.2-.8-4.5.1-.3.4-2.8.8-5.5 1.5-11.8 2.4-11.7 5.1.5zm6.5 27.7c.2 4.5 1.8 16 2.6 18.8.3 1.1.7 4.1.9 6.7.2 3.8 0 4.6-1.1 4.1-.8-.3-1.3-.8-1.1-1.2.3-.3-1.1-5.1-3-10.5-3.5-9.9-3.8-15-1.1-18.4 1.4-1.7 2.7-1.5 2.8.5zm-19.4 4.6c.2 1.2 1.5 5.7 2.8 10 1.4 4.3 2.5 8.9 2.5 10.2 0 2.6-2.9 9.5-4 9.5s-7-18.2-7-21.4c0-3.2 3.9-12.1 4.8-11.1.3.3.7 1.5.9 2.8zm-193.2-.2c-.4.5-.2.9.3.9s1.2 1.7 1.6 3.7c.3 2.1.8 4.9 1.1 6.3 1 5.5 2.6 18.3 2.8 23.5.1 1.6.5 3.2.9 3.5.4.3.3 1.2-.1 1.9-1.4 2.1-2.8-1.4-3.5-8.4-.3-3.3-1-7.5-1.6-9.4-.5-1.9-.7-3.8-.4-4.3.3-.4.1-2.3-.5-4.1-1.7-5.1-2.5-16.1-1.2-15.3.6.4.9 1.2.6 1.7zm202.4 28.7c1.3 4.6 9.9 26.1 16 39.7 2.1 4.6 2.8 8.4 2.9 16 .2 7.9.1 8-1.6 5.6-1.6-2.3-4.1-8.1-13.9-32.1-1.9-4.7-4.8-11.3-6.4-14.8-1.6-3.5-2.9-6.7-2.9-7.2 0-1.9 3.4-11 4.1-11 .5 0 1.3 1.7 1.8 3.8zM292.4 375c.2 1.4.5 2.5.6 2.5.3 0 1.2 5.2 2.5 13.7.5 3.1-.9 3.7-2.4 1-.9-1.6-2-8.5-2.4-14.4-.1-1.4-.5-2.9-.9-3.3-.4-.4-.4-1.4-.1-2.2.7-1.8 2.1-.5 2.7 2.7zm42.6 1.5c0 .6 1.6 4.3 3.5 8.2 3.4 7.1 4.3 10.3 2.7 10.3-1.9 0-10.8-21.1-9.4-22.4.6-.7 3.1 2.4 3.2 3.9zm62.9 26.7c2.5 5.9 7.8 21.4 9 26.3.5 2.2 1.6 6.5 2.5 9.5.8 3 1.8 7.5 2.1 10 .3 2.5.9 5.4 1.2 6.5.5 1.7.4 1.8-1 .7-.8-.7-1.8-2.5-2.2-4-.4-1.5-1.3-4.1-2-5.7-10.7-23.9-12.9-30.1-13-37-.2-6.7.3-10.5 1.2-10.5.2 0 1.2 1.9 2.2 4.2zM62.5 414c-.3.5-.9 3.9-1.9 12-.2 1.4-.9 7.2-1.5 13-1.1 9.5-2.9 22-3.6 24.5-.1.5-.6 2.9-1 5.3s-1.2 4.1-1.9 3.9c-1.6-.5-1.6-22.4 0-31.7.7-4.1 1-7.8.8-8.2-.3-.5 0-.8.6-.8s.9-.4.6-.8c-.3-.5 1.1-5.2 3.1-10.6 2.3-6.2 3.9-9.3 4.4-8.5.4.7.6 1.6.4 1.9z"/></svg>