<?xml version="1.0" standalone="no"?>
<!DOCTYPE svg PUBLIC "-//W3C//DTD SVG 20010904//EN"
 "http://www.w3.org/TR/2001/REC-SVG-20010904/DTD/svg10.dtd">
<svg version="1.0" xmlns="http://www.w3.org/2000/svg"
 width="128.000000pt" height="128.000000pt" viewBox="0 0 128.000000 128.000000"
 preserveAspectRatio="xMidYMid meet">
<metadata>
Created by potrace 1.11, written by Peter Selinger 2001-2013
</metadata>
<g transform="translate(0.000000,128.000000) scale(0.100000,-0.100000)"
fill="#000000" stroke="none">
<path d="M834 1177 c-38 -39 -83 -90 -100 -112 -28 -36 -36 -40 -90 -45 -42
-4 -66 -1 -84 9 -36 21 -70 58 -62 67 4 4 1 4 -6 0 -8 -5 -22 0 -35 11 -51 45
-167 122 -172 114 -5 -9 -7 -39 -4 -71 1 -17 -10 -83 -16 -88 -2 -2 1 -15 6
-29 8 -23 22 -132 20 -158 -3 -32 -8 -55 -14 -61 -14 -14 -7 -44 8 -38 11 5
13 2 9 -10 -6 -15 -41 -32 -57 -28 -5 1 -6 -2 -3 -7 3 -5 15 -7 26 -4 16 4 19
2 14 -12 -6 -14 -3 -16 12 -11 18 5 19 2 17 -37 -2 -23 -12 -76 -23 -117 -16
-58 -20 -91 -15 -145 6 -64 4 -73 -18 -103 -57 -77 -144 -133 -207 -134 -32 0
-40 -4 -38 -17 2 -10 15 -17 36 -19 17 -2 32 -6 32 -10 0 -4 -16 -33 -35 -64
l-34 -58 640 0 641 0 -7 32 c-4 18 -14 45 -21 61 -14 25 -13 27 6 27 33 0 28
56 -7 74 -16 8 -59 40 -98 71 -60 50 -73 66 -92 118 -21 59 -21 61 -3 84 15
19 16 30 8 61 -5 20 -11 69 -14 109 -2 40 -13 92 -24 117 -12 29 -15 46 -8 48
6 2 3 11 -7 22 -19 19 -13 31 20 39 18 4 18 5 -2 6 -12 0 -25 6 -29 13 -4 7
-3 8 4 4 17 -10 15 14 -3 34 -8 9 -16 30 -19 46 -2 16 -7 37 -10 46 -4 9 -9
22 -10 30 -12 67 -50 208 -56 208 -3 0 -38 -33 -76 -73z m169 -430 c15 -24 32
-97 21 -97 -5 0 -54 105 -54 115 0 13 19 2 33 -18z m54 -404 c-2 -2 -14 4 -25
14 -16 14 -20 25 -15 48 l6 30 19 -44 c10 -24 17 -46 15 -48z"/>
</g>
</svg>
