<?xml version="1.0" standalone="no"?>
<!DOCTYPE svg PUBLIC "-//W3C//DTD SVG 20010904//EN"
 "http://www.w3.org/TR/2001/REC-SVG-20010904/DTD/svg10.dtd">
<svg version="1.0" xmlns="http://www.w3.org/2000/svg"
 width="794.000000pt" height="794.000000pt" viewBox="0 0 794.000000 794.000000"
 preserveAspectRatio="xMidYMid meet">
<metadata>
Created by potrace 1.11, written by Peter Selinger 2001-2013
</metadata>
<g transform="translate(0.000000,794.000000) scale(0.100000,-0.100000)"
fill="#000000" stroke="none">
<path d="M6673 7445 c-7 -8 -13 -19 -13 -25 0 -6 -10 -21 -21 -33 l-21 -22 11
22 c6 12 11 24 11 27 0 12 -32 6 -46 -8 -8 -8 -14 -22 -14 -30 0 -9 -7 -16
-15 -16 -17 0 -145 -124 -145 -140 0 -14 -127 -140 -140 -140 -14 0 -60 -46
-60 -60 0 -15 -147 -160 -163 -160 -7 0 -19 -9 -27 -20 -8 -11 -21 -20 -30
-20 -9 0 -22 -9 -30 -20 -8 -11 -21 -20 -29 -20 -7 0 -21 -8 -30 -17 -16 -17
-55 -43 -66 -43 -3 0 -5 14 -5 30 0 17 5 30 10 30 6 0 10 14 10 30 0 23 -4 30
-20 30 -13 0 -20 -7 -20 -20 0 -13 -7 -20 -20 -20 -11 0 -23 -1 -27 -2 -5 -1
-10 7 -12 18 -2 10 -15 29 -29 41 -21 18 -27 19 -39 8 -7 -8 -13 -20 -13 -27
0 -8 -9 -20 -20 -28 -11 -8 -20 -20 -20 -27 0 -19 -113 -129 -118 -115 -7 21
-33 13 -62 -18 -15 -16 -33 -30 -39 -30 -6 0 -25 -13 -43 -30 -17 -16 -35 -30
-40 -30 -15 0 -38 27 -38 44 0 9 -4 16 -10 16 -5 0 -10 9 -10 20 0 11 -4 20
-10 20 -5 0 -10 9 -10 20 0 11 -4 20 -10 20 -5 0 -10 9 -10 20 0 11 -4 20 -10
20 -5 0 -10 9 -10 20 0 11 -4 20 -10 20 -5 0 -10 14 -10 30 0 17 -4 30 -10 30
-5 0 -10 23 -10 50 0 28 -4 50 -10 50 -6 0 -10 27 -10 60 0 33 -4 60 -10 60
-5 0 -10 -13 -10 -30 0 -16 -4 -30 -10 -30 -6 0 -10 -47 -10 -120 0 -73 4
-120 10 -120 6 0 10 -27 10 -60 0 -33 4 -60 10 -60 6 0 10 -18 10 -40 0 -22 5
-40 10 -40 6 0 10 -22 10 -50 0 -27 -4 -50 -10 -50 -5 0 -10 -9 -10 -20 0 -13
-7 -20 -20 -20 -11 0 -20 4 -20 8 0 5 -12 15 -27 23 -16 8 -35 22 -44 31 -9
10 -23 18 -30 18 -8 0 -21 9 -29 20 -8 11 -22 20 -32 20 -10 0 -18 4 -18 8 0
5 -21 20 -47 33 -27 13 -55 32 -64 41 -9 10 -24 18 -33 18 -9 0 -16 5 -16 10
0 6 -9 10 -20 10 -11 0 -20 5 -20 10 0 6 -13 10 -30 10 -16 0 -30 5 -30 10 0
6 -9 10 -20 10 -11 0 -20 -4 -20 -10 0 -5 9 -10 20 -10 11 0 20 -4 20 -10 0
-5 9 -10 20 -10 11 0 20 -4 20 -10 0 -5 9 -10 20 -10 11 0 20 -4 20 -10 0 -5
9 -10 20 -10 11 0 20 -4 20 -10 0 -5 9 -10 20 -10 11 0 20 -4 20 -10 0 -5 9
-10 20 -10 11 0 20 -4 20 -8 0 -5 12 -15 28 -23 15 -8 36 -22 46 -31 19 -18
19 -18 -17 -18 -20 0 -37 5 -37 10 0 6 -13 10 -30 10 -16 0 -30 5 -30 10 0 6
-13 10 -30 10 -16 0 -30 5 -30 10 0 6 -18 10 -40 10 -22 0 -40 5 -40 10 0 6
-33 10 -80 10 -47 0 -80 4 -80 10 0 6 -22 10 -50 10 -27 0 -50 -4 -50 -10 0
-6 -27 -10 -60 -10 -33 0 -60 -4 -60 -10 0 -6 -47 -10 -120 -10 -73 0 -120 -4
-120 -10 0 -5 -13 -10 -30 -10 -16 0 -30 -4 -30 -10 0 -5 -9 -10 -20 -10 -11
0 -20 5 -20 10 0 6 -13 10 -30 10 -16 0 -30 5 -30 10 0 6 -9 10 -20 10 -11 0
-20 5 -20 10 0 6 -13 10 -30 10 -16 0 -30 5 -30 10 0 6 -13 10 -30 10 -16 0
-30 5 -30 10 0 6 -9 10 -20 10 -11 0 -20 5 -20 10 0 6 -13 10 -30 10 -16 0
-30 5 -30 10 0 6 -9 10 -20 10 -11 0 -20 5 -20 10 0 6 -9 10 -20 10 -11 0 -20
5 -20 10 0 6 -13 10 -30 10 -16 0 -30 5 -30 10 0 6 -9 10 -20 10 -11 0 -20 5
-20 10 0 6 -9 10 -20 10 -11 0 -20 5 -20 10 0 6 -9 10 -20 10 -11 0 -20 5 -20
10 0 6 -13 10 -30 10 -16 0 -30 5 -30 10 0 6 -9 10 -20 10 -11 0 -20 5 -20 10
0 6 -7 10 -15 10 -17 0 -57 20 -67 35 -4 5 -10 7 -13 3 -9 -9 121 -138 138
-138 7 0 19 -9 27 -20 8 -11 21 -20 30 -20 9 0 22 -9 30 -20 8 -11 22 -20 32
-20 10 0 18 -4 18 -10 0 -5 9 -10 20 -10 11 0 20 -4 20 -10 0 -5 9 -10 20 -10
11 0 20 -4 20 -10 0 -5 9 -10 20 -10 11 0 20 -4 20 -10 0 -5 9 -10 20 -10 11
0 20 -4 20 -10 0 -5 9 -10 20 -10 11 0 20 -4 20 -10 0 -5 9 -10 20 -10 11 0
20 -4 20 -10 0 -5 9 -10 20 -10 11 0 20 -4 20 -10 0 -5 9 -10 20 -10 11 0 20
-4 20 -10 0 -5 -13 -10 -30 -10 -16 0 -30 5 -30 10 0 6 -37 10 -90 10 -53 0
-90 -4 -90 -10 0 -6 -33 -10 -80 -10 -47 0 -80 -4 -80 -10 0 -5 -18 -10 -40
-10 -22 0 -40 -4 -40 -10 0 -5 -13 -10 -30 -10 -16 0 -30 -4 -30 -10 0 -5 -13
-10 -30 -10 -16 0 -30 -4 -30 -10 0 -5 -9 -10 -20 -10 -11 0 -20 -4 -20 -10 0
-5 -9 -10 -20 -10 -11 0 -20 -4 -20 -10 0 -5 -7 -10 -16 -10 -8 0 -33 -18 -54
-40 -21 -22 -43 -40 -50 -40 -14 0 -80 -66 -80 -81 0 -6 -13 -24 -30 -39 -16
-15 -30 -35 -30 -44 0 -9 -4 -16 -10 -16 -5 0 -10 -9 -10 -20 0 -11 -4 -20
-10 -20 -5 0 -10 -9 -10 -20 0 -11 -4 -20 -10 -20 -5 0 -10 -9 -10 -20 0 -11
-4 -20 -10 -20 -5 0 -10 -13 -10 -30 0 -16 -4 -30 -10 -30 -5 0 -10 -16 -10
-36 0 -36 -18 -64 -42 -64 -8 0 -20 -9 -28 -20 -8 -11 -21 -20 -28 -20 -7 0
-31 -18 -52 -40 -21 -22 -43 -40 -49 -40 -15 0 -181 -166 -181 -181 0 -6 -13
-24 -30 -39 -16 -15 -30 -35 -30 -44 0 -9 -4 -16 -10 -16 -5 0 -10 -9 -10 -20
0 -11 -4 -20 -10 -20 -5 0 -10 -9 -10 -20 0 -11 -4 -20 -10 -20 -5 0 -10 -18
-10 -40 0 -22 -4 -40 -10 -40 -6 0 -10 -33 -10 -80 0 -47 4 -80 10 -80 6 0 10
-4 10 -10 0 -6 -33 -10 -80 -10 -47 0 -80 4 -80 10 0 6 -13 10 -30 10 -16 0
-30 5 -30 10 0 6 -9 10 -20 10 -11 0 -20 5 -20 10 0 6 -7 10 -15 10 -8 0 -34
18 -57 40 -50 47 -88 53 -88 15 0 -18 21 -47 75 -100 41 -41 82 -75 90 -75 8
0 15 -4 15 -10 0 -5 9 -10 20 -10 11 0 20 -4 20 -10 0 -5 23 -10 50 -10 28 0
50 -2 50 -5 0 -10 -49 -55 -60 -55 -14 0 -120 -106 -120 -120 0 -6 -31 -42
-70 -80 -38 -38 -70 -74 -70 -81 0 -6 -13 -24 -30 -39 -16 -15 -30 -33 -30
-40 0 -7 -14 -25 -30 -40 -17 -15 -30 -34 -30 -42 0 -7 -9 -20 -20 -28 -11 -8
-20 -21 -20 -30 0 -9 -9 -22 -20 -30 -11 -8 -20 -22 -20 -32 0 -10 -4 -18 -10
-18 -5 0 -10 -8 -10 -18 0 -10 -9 -24 -20 -32 -11 -8 -20 -22 -20 -32 0 -10
-4 -18 -10 -18 -5 0 -10 -9 -10 -20 0 -11 -4 -20 -10 -20 -5 0 -10 -9 -10 -20
0 -11 -4 -20 -10 -20 -5 0 -10 -9 -10 -20 0 -11 -4 -20 -10 -20 -5 0 -10 -9
-10 -20 0 -11 -4 -20 -10 -20 -5 0 -10 -9 -10 -20 0 -11 -4 -20 -10 -20 -15 0
-12 -77 3 -84 9 -5 9 -7 0 -12 -8 -4 -13 -27 -13 -65 0 -33 -4 -59 -10 -59 -5
0 -10 -17 -10 -38 0 -26 -6 -42 -20 -52 -11 -8 -20 -22 -20 -32 0 -10 -4 -18
-10 -18 -5 0 -10 -8 -10 -18 0 -10 -9 -24 -20 -32 -11 -8 -20 -21 -20 -28 0
-20 -125 -142 -144 -142 -9 0 -16 -4 -16 -10 0 -5 -9 -10 -20 -10 -11 0 -20
-4 -20 -10 0 -5 -13 -10 -30 -10 -16 0 -30 -4 -30 -10 0 -6 -33 -10 -80 -10
-47 0 -80 -4 -80 -10 0 -6 -40 -10 -100 -10 -60 0 -100 -4 -100 -10 0 -5 -22
-10 -50 -10 -27 0 -50 -4 -50 -10 0 -5 -9 -10 -20 -10 -11 0 -20 -4 -20 -10 0
-5 -9 -10 -20 -10 -11 0 -20 -4 -20 -10 0 -5 -7 -10 -15 -10 -20 0 -85 -65
-85 -85 0 -8 -4 -15 -10 -15 -5 0 -10 -13 -10 -28 0 -16 -8 -34 -20 -42 -11
-8 -20 -22 -20 -32 0 -10 -4 -18 -10 -18 -18 0 -11 -55 10 -70 11 -8 20 -22
20 -32 0 -10 5 -18 10 -18 6 0 10 -7 10 -15 0 -15 42 -65 55 -65 3 0 5 18 5
40 0 22 5 40 10 40 6 0 10 13 10 28 0 16 8 34 20 42 11 8 20 21 20 30 0 9 9
22 20 30 11 8 20 20 20 28 0 32 28 42 112 42 72 0 86 -3 98 -20 8 -11 21 -20
29 -20 11 0 9 -6 -7 -20 -12 -11 -25 -20 -30 -20 -5 0 -15 -7 -22 -15 -14 -17
-108 -65 -127 -65 -7 0 -13 -4 -13 -10 0 -18 37 -10 95 20 31 17 62 30 69 30
6 0 18 9 26 20 8 11 21 20 30 20 9 0 22 9 30 20 8 11 21 20 29 20 7 0 21 8 30
18 9 11 28 22 43 25 20 5 -2 -20 -88 -105 -134 -131 -178 -165 -351 -272 -70
-44 -141 -91 -156 -105 -37 -34 -148 -215 -222 -361 -31 -63 -60 -117 -64
-120 -3 -3 -12 -17 -20 -32 -8 -16 -18 -28 -23 -28 -4 0 -8 -9 -8 -20 0 -11
-4 -20 -10 -20 -5 0 -10 -6 -10 -14 0 -8 -5 -16 -11 -18 -6 -2 -9 -21 -7 -43
l3 -40 68 105 c38 58 93 156 123 218 30 62 86 165 126 227 l71 115 124 76
c173 106 271 180 394 299 143 138 244 202 577 367 168 83 282 144 279 151 -4
13 -36 14 -77 2 -16 -4 -9 3 19 20 45 28 89 43 152 52 30 4 39 1 58 -22 11
-15 25 -44 31 -65 6 -21 17 -44 26 -51 22 -18 84 -144 84 -172 0 -12 -7 -33
-16 -45 -22 -32 -114 -82 -150 -82 -17 0 -80 -23 -138 -51 -100 -48 -115 -59
-225 -169 -202 -201 -302 -382 -344 -625 -9 -49 -21 -105 -26 -122 -5 -18 -13
-86 -17 -150 -3 -65 -11 -123 -16 -129 -5 -7 -63 -31 -130 -55 -95 -35 -131
-53 -169 -87 -58 -52 -64 -67 -50 -135 10 -45 9 -60 -10 -112 -30 -85 -22
-173 21 -227 28 -34 31 -45 32 -110 1 -63 -7 -95 -50 -225 -56 -168 -104 -252
-172 -300 -22 -15 -40 -31 -40 -35 0 -15 38 -8 63 12 14 11 33 20 44 20 40 0
146 40 197 74 51 34 54 38 64 94 6 34 8 132 5 237 -6 180 -6 180 20 230 33 62
46 76 125 143 56 45 107 72 116 61 1 -2 22 -49 45 -104 23 -55 47 -109 53
-120 6 -11 23 -42 36 -70 41 -81 169 -252 227 -301 106 -92 259 -192 338 -220
112 -42 228 -58 404 -57 124 0 133 -1 133 -19 0 -10 -10 -32 -22 -48 -11 -16
-24 -48 -28 -72 -4 -24 -11 -55 -15 -70 l-7 -28 33 14 c47 20 86 80 99 151 14
83 38 167 51 179 13 13 3 -140 -16 -257 -22 -130 -53 -173 -224 -315 -47 -39
-131 -139 -131 -155 0 -11 48 -8 55 4 4 6 50 10 118 9 62 -1 531 -1 1044 -1
l932 1 28 24 c27 23 27 25 10 43 -9 11 -17 30 -17 44 0 32 59 79 98 79 19 0
35 8 45 22 8 13 18 20 21 17 3 -3 -2 -14 -12 -25 -46 -51 -92 -114 -84 -114 4
0 45 38 89 85 45 47 87 85 94 85 8 0 -5 -17 -29 -38 -23 -20 -42 -41 -42 -47
0 -5 -37 -47 -82 -92 l-83 -83 291 0 290 0 38 118 c21 64 45 128 53 142 9 17
12 18 8 5 -31 -100 -76 -257 -73 -260 3 -3 559 -9 586 -6 8 1 12 18 12 51 0
28 5 50 10 50 6 0 10 27 10 60 0 33 4 60 10 60 6 0 10 23 10 50 0 28 5 50 10
50 6 0 10 27 10 60 0 33 4 60 10 60 6 0 10 27 10 60 0 33 4 60 10 60 6 0 10
23 10 50 0 28 5 50 10 50 6 0 10 23 10 50 0 28 5 50 10 50 6 0 10 23 10 50 0
28 5 50 10 50 6 0 10 23 10 50 0 28 5 50 10 50 6 0 10 14 10 30 0 17 5 30 10
30 6 0 10 8 10 18 0 10 9 24 20 32 11 8 20 21 20 30 0 9 9 22 20 30 11 8 20
21 20 30 0 9 9 22 20 30 11 8 20 21 20 28 0 8 14 27 30 42 17 15 30 34 30 42
0 7 9 20 20 28 11 8 20 21 20 28 0 7 18 31 40 52 22 21 40 44 40 50 0 6 18 29
40 50 34 33 40 45 40 80 0 40 17 70 40 70 17 0 40 26 40 44 0 9 -4 16 -10 16
-5 0 -10 5 -10 10 0 6 14 10 30 10 30 0 41 -14 18 -23 -8 -2 -9 -8 -4 -13 5
-5 11 -4 13 4 3 6 13 12 24 12 10 0 19 7 19 15 0 9 36 51 80 95 44 44 80 84
80 90 0 6 23 33 50 60 28 27 50 54 50 60 0 7 14 25 30 40 17 15 30 34 30 42 0
7 9 20 20 28 11 8 20 20 20 28 0 15 65 82 80 82 16 0 80 67 80 85 0 8 5 15 10
15 6 0 10 9 10 20 0 11 5 20 10 20 6 0 10 8 10 18 0 10 9 24 20 32 11 8 20 22
20 32 0 10 5 18 10 18 6 0 10 14 10 30 0 17 5 30 10 30 6 0 10 9 10 20 0 11 5
20 10 20 6 0 10 9 10 20 0 11 5 20 10 20 6 0 10 9 10 20 0 11 5 20 10 20 6 0
10 9 10 20 0 11 5 20 10 20 6 0 10 9 10 20 0 11 5 20 10 20 6 0 10 9 10 20 0
11 5 20 10 20 6 0 10 14 10 30 0 17 5 30 10 30 6 0 10 33 10 80 0 47 4 80 10
80 6 0 10 43 10 110 0 67 4 110 10 110 6 0 10 37 10 90 0 53 4 90 10 90 6 0
10 117 10 330 0 213 -4 330 -10 330 -6 0 -10 27 -10 60 0 33 -4 60 -10 60 -15
0 -12 49 4 66 8 8 22 14 30 14 9 0 16 5 16 10 0 6 9 10 20 10 11 0 20 5 20 10
0 6 9 10 20 10 11 0 20 5 20 10 0 6 9 10 20 10 11 0 20 5 20 10 0 6 8 10 18
10 10 0 24 9 32 20 8 11 20 20 27 20 19 0 103 86 103 105 0 8 5 15 10 15 6 0
10 9 10 20 0 11 5 20 10 20 6 0 10 30 10 70 0 40 -4 70 -10 70 -5 0 -10 9 -10
20 0 11 -4 20 -10 20 -5 0 -10 12 -10 26 0 29 -21 54 -44 54 -9 0 -16 5 -16
10 0 6 -13 10 -29 10 -16 0 -31 6 -34 13 -2 6 -8 8 -13 4 -4 -4 -3 -17 4 -27
7 -11 12 -27 12 -35 0 -8 5 -15 10 -15 6 0 10 -27 10 -60 0 -33 4 -60 10 -60
6 0 10 -7 10 -15 0 -19 -184 -205 -203 -205 -7 0 -19 -9 -27 -20 -8 -11 -22
-20 -31 -20 -10 0 -19 -6 -21 -12 -7 -21 -38 17 -38 46 0 14 -4 26 -10 26 -5
0 -10 9 -10 20 0 11 -4 20 -10 20 -5 0 -10 18 -10 40 0 22 -4 40 -10 40 -5 0
-10 18 -10 40 0 22 -4 40 -10 40 -5 0 -10 14 -10 30 0 17 -4 30 -10 30 -6 0
-10 30 -10 70 0 63 -2 70 -20 70 -11 0 -20 -5 -20 -11 0 -5 -5 -7 -11 -3 -8 4
-8 9 0 17 6 6 11 21 11 33 0 12 6 24 12 26 21 7 -17 38 -46 38 -19 0 -26 5
-26 20 0 11 -4 20 -10 20 -6 0 -10 27 -10 60 0 33 -4 60 -10 60 -6 0 -10 27
-10 60 0 33 4 60 10 60 6 0 10 43 10 110 0 67 4 110 10 110 7 0 10 143 10 410
0 267 -3 410 -10 410 -6 0 -10 27 -10 60 0 33 -4 60 -10 60 -6 0 -10 27 -10
60 0 33 -4 60 -10 60 -6 0 -10 27 -10 60 0 33 -4 60 -10 60 -5 0 -10 23 -10
50 0 28 -4 50 -10 50 -6 0 -10 27 -10 60 0 33 -4 60 -10 60 -6 0 -10 50 -10
130 0 80 4 130 10 130 6 0 10 9 10 20 0 11 -4 20 -10 20 -5 0 -10 -7 -10 -16
0 -15 -23 -44 -34 -44 -3 0 -6 77 -6 170 0 94 -3 170 -7 170 -5 -1 -14 -7 -20
-15z m-928 -644 c14 -42 26 -47 60 -25 l26 17 -7 -44 c-4 -24 -12 -50 -18 -58
-11 -14 -175 -142 -245 -191 -20 -14 -52 -47 -71 -73 -19 -26 -42 -47 -50 -47
-16 0 -100 127 -100 151 0 8 24 30 54 48 30 18 62 41 72 52 13 14 25 18 45 14
24 -6 35 1 79 47 27 29 65 74 83 100 17 27 38 47 46 45 8 -1 19 -17 26 -36z
m-1040 -265 c89 -21 223 -63 244 -77 12 -8 9 -9 -14 -4 -185 41 -400 85 -442
91 -29 3 -53 9 -53 13 0 11 193 -6 265 -23z m60 -97 c49 -13 217 -78 227 -88
4 -4 2 -21 -4 -39 -13 -34 -21 -35 -72 -16 -28 11 -17 -14 17 -38 17 -13 55
-33 82 -46 l50 -23 -27 -21 c-23 -16 -26 -23 -17 -40 16 -29 6 -32 -40 -9 -44
23 -62 46 -81 104 -6 20 -16 37 -21 37 -12 0 -12 47 1 55 18 11 1 23 -52 34
-54 12 -128 54 -147 84 -10 15 -7 17 16 17 16 0 46 -5 68 -11z m452 -45 c-9
-10 -37 9 -37 25 0 30 14 33 28 5 7 -14 12 -28 9 -30z m105 -201 c71 -35 113
-62 128 -83 36 -51 18 -52 -50 -4 -36 25 -101 64 -145 86 -93 47 -89 44 -81
57 8 12 8 12 148 -56z m-199 32 c45 -19 61 -41 23 -31 -35 9 -96 46 -75 46 9
0 33 -7 52 -15z m-253 -112 c79 -20 350 -158 350 -178 0 -3 -45 18 -99 45
-111 56 -177 83 -268 111 -33 11 -72 28 -85 39 l-23 20 50 -15 c28 -9 61 -18
75 -22z m751 -64 l44 -40 -47 30 c-48 32 -67 51 -50 51 5 0 29 -18 53 -41z
m-2548 24 c-7 -2 -13 -11 -13 -19 0 -8 -4 -14 -10 -14 -5 0 -10 -9 -10 -20 0
-11 -4 -20 -10 -20 -5 0 -10 -7 -10 -16 0 -20 -24 -44 -44 -44 -9 0 -16 -4
-16 -10 0 -5 -9 -10 -20 -10 -11 0 -20 4 -20 8 0 4 9 14 20 22 11 8 20 20 20
28 0 22 90 101 115 101 6 0 4 -3 -2 -6z m1613 -107 c158 -21 448 -116 539
-176 l30 -20 -35 4 c-19 1 -98 26 -175 55 -77 29 -185 63 -240 76 -191 44
-290 75 -244 75 9 0 64 -7 125 -14z m1186 -120 c14 -28 0 -13 -56 59 l-47 60
46 -49 c25 -27 51 -58 57 -70z m-892 -54 c0 -15 7 -36 15 -46 36 -47 6 -84
-31 -40 -57 68 -64 109 -21 116 31 6 37 1 37 -30z m430 -98 c98 -58 196 -129
220 -160 14 -18 14 -18 -10 -3 -83 52 -257 158 -295 180 -41 23 -49 39 -21 39
7 0 54 -25 106 -56z m-400 -389 c63 -16 162 -58 120 -51 -77 14 -158 29 -177
32 -13 3 -23 11 -23 19 0 19 8 19 80 0z m-1370 -74 l0 -38 -60 -6 c-33 -4 -95
-20 -138 -37 -42 -16 -83 -30 -89 -30 -22 0 -14 -14 17 -32 40 -23 49 -63 21
-91 -16 -17 -33 -21 -79 -22 -109 0 -172 -69 -134 -147 l13 -28 -44 0 c-30 0
-53 7 -71 21 -30 23 -49 18 -24 -7 27 -27 83 -33 159 -17 39 8 73 12 76 9 3
-3 30 6 60 20 62 27 67 28 58 14 -12 -19 10 -9 44 20 38 32 55 32 26 0 -10
-11 -15 -20 -10 -20 17 0 76 43 96 71 21 30 86 69 114 69 14 0 14 -3 -1 -25
-24 -36 -6 -31 30 10 26 29 42 37 106 49 160 32 480 58 480 39 0 -5 -46 -20
-102 -32 -365 -81 -528 -133 -706 -227 -200 -105 -413 -272 -404 -316 1 -5
-14 -18 -33 -30 -53 -35 -50 -51 3 -19 77 45 293 132 343 138 38 5 225 -6 389
-22 72 -7 187 -25 233 -37 58 -15 41 -26 -41 -27 -213 -3 -546 -102 -657 -195
-24 -21 -15 -18 50 14 48 24 106 44 145 50 151 23 573 5 808 -35 77 -13 76
-13 -123 -14 -219 -1 -482 -27 -618 -61 -44 -11 -82 -20 -85 -20 -3 0 -3 -2 0
-5 3 -3 43 4 89 15 137 32 362 50 659 52 291 2 301 1 483 -53 l67 -20 -16 -30
c-14 -28 -14 -32 1 -49 9 -10 17 -35 18 -54 1 -32 4 -36 29 -36 15 0 28 -4 28
-10 0 -5 -16 -10 -35 -10 -19 0 -35 -5 -35 -11 0 -8 11 -9 32 -5 l32 6 -27
-28 -27 -29 20 -18 c20 -18 21 -18 35 1 12 16 14 16 15 3 0 -9 -10 -24 -21
-35 -12 -10 -40 -44 -62 -74 -23 -30 -89 -107 -148 -170 -136 -145 -200 -229
-297 -392 -70 -118 -85 -137 -188 -229 -166 -149 -273 -232 -331 -257 -65 -28
-158 -52 -200 -52 -41 0 -39 5 42 105 82 102 175 245 175 270 0 13 10 44 22
71 19 43 22 66 22 194 -1 172 -17 256 -68 359 -37 73 -56 96 -32 39 27 -65 48
-137 44 -155 -2 -10 -18 18 -37 67 -38 99 -66 155 -92 189 -25 31 -24 25 6
-43 38 -86 33 -94 -29 -42 -85 73 -98 62 -36 -30 31 -47 100 -214 100 -243 0
-3 -39 -6 -88 -7 -48 -1 -116 -9 -152 -18 -81 -22 -233 -95 -282 -136 -53 -44
-88 -121 -87 -189 l1 -56 8 42 c9 44 43 118 60 128 5 3 10 11 10 16 0 6 -5 7
-12 3 -7 -4 -8 -3 -4 5 4 6 11 9 16 6 4 -3 17 11 29 30 23 39 105 85 154 85
40 0 94 -25 107 -50 28 -52 -22 -99 -107 -101 -21 0 -32 -3 -25 -6 19 -7 14
-31 -7 -38 -24 -7 -91 -80 -91 -99 0 -8 -3 -23 -7 -33 -6 -16 -5 -16 10 -4 14
11 17 11 17 1 0 -8 7 -21 16 -31 13 -14 13 -20 2 -38 -7 -12 -18 -21 -25 -21
-23 0 -14 -23 24 -62 l37 -38 -32 -30 c-18 -16 -32 -31 -32 -34 0 -3 12 -12
28 -20 15 -8 20 -15 12 -16 -8 0 10 -16 40 -35 l54 -35 -34 0 c-111 0 -305 57
-382 112 l-31 22 24 -33 c31 -42 104 -97 215 -161 l89 -52 -85 6 c-47 3 -123
2 -170 -3 l-85 -8 127 -1 c142 -1 266 -11 273 -22 7 -11 -98 -38 -196 -52 -46
-6 -154 -11 -239 -12 -129 0 -162 3 -195 18 -39 18 -40 18 -15 27 14 5 72 15
130 24 102 14 103 14 25 9 -44 -3 -98 -9 -120 -14 -70 -16 -98 -12 -153 25
-110 74 -221 208 -355 429 -125 205 -262 490 -302 630 -29 99 1 291 90 583 48
158 190 523 232 599 75 133 275 285 409 310 34 6 36 5 29 -12 -30 -69 -56
-162 -60 -216 l-5 -63 16 48 c8 26 19 47 25 47 5 0 9 9 9 19 0 39 175 203 267
250 56 28 58 27 28 -13 -27 -35 -97 -192 -109 -242 l-6 -29 21 30 c39 53 166
172 190 178 13 3 62 18 109 32 113 34 300 66 438 73 31 2 32 1 32 -37z m359
-6 c75 -19 83 -31 30 -45 -124 -32 -168 -45 -207 -62 l-44 -18 6 33 7 32 -20
-36 c-13 -23 -32 -41 -52 -48 -18 -6 -34 -10 -35 -8 -2 2 16 34 41 71 24 37
47 77 51 88 6 19 12 19 87 13 45 -4 106 -13 136 -20z m1085 -31 c22 -54 16
-65 -22 -37 -34 25 -52 71 -33 83 22 13 35 3 55 -46z m-1389 -172 c-42 -25
-68 -34 -59 -21 7 11 61 38 79 39 6 0 -3 -8 -20 -18z m1308 -10 c123 -22 155
-38 54 -27 -48 5 -72 3 -83 -5 -11 -10 -27 -10 -72 -1 -74 14 -320 34 -345 27
-11 -3 -34 -2 -51 2 -27 6 -22 8 39 19 94 16 322 9 458 -15z m1438 -89 c84
-90 193 -263 176 -279 -5 -6 -79 100 -105 151 -11 22 -39 63 -63 90 -71 82
-72 85 -62 85 6 0 30 -21 54 -47z m-3051 27 c0 -5 -7 -10 -15 -10 -8 0 -15 5
-15 10 0 6 7 10 15 10 8 0 15 -4 15 -10z m1635 0 c-3 -5 -21 -10 -40 -10 -19
0 -37 5 -40 10 -4 6 12 10 40 10 28 0 44 -4 40 -10z m358 -29 c34 -10 111 -33
171 -50 116 -34 291 -114 341 -156 26 -22 16 -20 -85 20 -63 25 -118 45 -122
45 -22 0 -117 43 -113 51 4 5 -4 13 -17 19 -41 17 -176 40 -230 39 l-53 -2 63
-8 c68 -9 158 -33 182 -49 20 -13 -25 -13 -109 0 -54 9 -189 18 -284 20 -19 0
-39 11 -57 30 -19 21 -38 30 -62 31 l-33 2 35 7 c19 4 103 6 185 4 93 -2 137
0 115 5 -25 6 -29 9 -12 10 13 0 51 -7 85 -18z m-488 -22 c-27 -5 -126 -20
-220 -35 -309 -48 -602 -148 -779 -266 -39 -26 -68 -38 -85 -36 -22 3 -11 11
64 54 261 149 481 219 870 273 130 19 245 26 150 10z m1595 -133 c0 -6 7 -23
14 -38 14 -27 14 -28 -10 -34 -34 -9 -49 9 -50 59 -1 23 -5 51 -9 62 -6 16 -1
13 23 -9 18 -17 32 -35 32 -40z m-1287 -115 c-15 -52 -10 -77 18 -86 10 -4 19
-11 19 -16 0 -10 -34 -12 -79 -3 -25 5 -29 9 -20 20 6 8 18 14 26 14 11 0 11
4 2 21 -9 18 -7 27 10 50 14 19 21 45 23 81 l1 53 6 -45 c4 -26 1 -64 -6 -89z
m1519 15 c17 -21 17 -21 33 17 9 21 21 37 28 34 35 -11 89 -230 73 -292 -8
-28 -10 -23 -30 50 -28 100 -33 109 -95 170 -28 27 -51 56 -50 65 0 12 3 11
12 -4 7 -10 20 -28 29 -40z m-4801 -10 c-7 -8 -11 -21 -9 -28 2 -8 -21 -46
-51 -86 -47 -64 -52 -76 -47 -106 6 -30 0 -45 -51 -120 -32 -47 -61 -86 -64
-86 -3 0 -11 12 -17 26 -10 20 -17 24 -33 19 -25 -8 -27 -13 39 90 84 131 221
305 239 305 3 0 0 -6 -6 -14z m4409 -39 c13 -23 12 -30 -9 -71 -25 -50 -35
-56 -51 -27 -12 24 -13 56 -1 79 5 9 12 25 15 35 8 24 27 17 46 -16z m-2700
-221 c0 -2 -7 -6 -15 -10 -8 -3 -15 -1 -15 4 0 6 7 10 15 10 8 0 15 -2 15 -4z
m-1948 -459 c-6 -6 -22 -32 -37 -57 -14 -25 -23 -34 -19 -20 9 31 46 90 58 90
5 0 4 -6 -2 -13z m3655 -34 c-121 -82 -177 -124 -228 -172 -46 -43 -51 -50
-31 -51 29 0 28 -11 -3 -40 -14 -13 -25 -35 -25 -49 -1 -14 -7 -37 -14 -50
l-14 -25 -16 32 c-9 17 -20 34 -26 37 -6 3 -35 -15 -65 -41 -67 -57 -72 -39
-12 42 79 106 227 227 377 308 103 55 134 60 57 9z m-222 -59 c0 -22 -89 -84
-120 -84 -15 0 -6 13 40 55 62 56 80 62 80 29z m-1375 -205 c0 -6 -4 -7 -10
-4 -5 3 -10 11 -10 16 0 6 5 7 10 4 6 -3 10 -11 10 -16z m35 -40 c8 -29 13
-55 11 -57 -4 -3 -36 99 -36 114 0 19 13 -9 25 -57z m1454 5 c-10 -12 -10 -17
0 -23 8 -6 -29 -44 -116 -122 -70 -62 -146 -131 -167 -152 -42 -41 -144 -112
-151 -106 -2 3 9 31 24 63 27 55 172 216 195 216 5 0 17 7 27 15 23 22 182
124 193 124 5 1 3 -6 -5 -15z m587 -199 c4 -9 15 -20 26 -26 15 -8 26 -5 53
15 19 14 38 26 44 26 5 0 33 -33 62 -72 29 -40 57 -76 63 -80 6 -4 30 -8 54
-8 l42 0 0 -42 c0 -34 -11 -57 -61 -132 -34 -50 -72 -101 -85 -113 -13 -12
-24 -28 -24 -36 0 -8 -36 -61 -80 -118 -162 -211 -253 -351 -210 -324 16 10
12 -1 -20 -65 -29 -58 -31 -59 -63 -53 -17 3 -44 16 -58 27 -15 12 -35 26 -45
32 -18 10 -18 12 -1 37 28 42 21 65 -43 139 -33 38 -60 76 -60 84 0 16 38 58
59 65 15 5 17 119 2 147 -27 50 -8 64 49 36 41 -21 62 -10 74 38 7 26 5 49 -7
86 -28 84 -23 106 34 173 29 32 71 70 95 84 30 17 46 35 54 60 12 36 36 46 46
20z m-5037 -93 c-13 -10 -37 -26 -52 -36 -22 -14 -27 -23 -23 -41 5 -19 1 -25
-26 -34 -44 -15 -49 -14 -47 12 5 59 0 69 -28 63 l-28 -6 30 17 c40 22 111 41
159 42 l39 1 -24 -18z m2672 -87 c-1 -15 -24 -12 -29 3 -3 9 2 13 12 10 10 -1
17 -7 17 -13z m-1345 -102 c16 -32 31 -62 33 -67 2 -5 -11 1 -30 13 l-34 23
29 -26 c17 -13 32 -23 35 -22 3 2 23 -23 44 -56 38 -61 37 -62 -23 -20 -30 21
-30 20 5 -9 22 -19 54 -50 70 -69 17 -19 56 -59 88 -89 81 -77 105 -125 28
-57 -23 20 -23 19 4 -24 15 -25 44 -60 64 -78 l36 -33 -49 32 c-27 17 -72 50
-100 73 -164 131 -196 156 -196 151 0 -3 75 -65 168 -139 163 -130 209 -172
201 -180 -2 -2 -47 7 -99 20 -122 32 -286 110 -323 153 -28 33 -36 27 -15 -12
6 -12 12 -31 13 -41 2 -18 90 -105 108 -106 4 0 7 -6 7 -14 0 -13 89 -60 165
-87 l40 -14 -45 -2 c-87 -5 -228 -24 -272 -38 -138 -41 -233 -130 -261 -242
l-12 -46 -93 -24 c-52 -13 -102 -28 -113 -34 -23 -12 -109 -39 -125 -39 -7 0
-31 41 -55 90 -23 50 -44 88 -46 87 -2 -2 15 -43 37 -92 23 -48 38 -91 33 -95
-13 -11 -185 -77 -222 -85 -32 -7 -33 -6 -27 21 3 16 8 65 11 109 22 289 107
543 238 712 91 118 289 293 387 343 21 10 61 22 91 26 l54 7 -25 -28 -25 -28
28 18 c33 21 33 17 3 -71 -30 -88 -49 -125 -87 -168 -21 -25 -26 -37 -18 -42
27 -16 138 148 154 228 3 16 10 25 18 23 7 -3 18 9 25 27 8 18 18 43 23 56 13
34 24 27 55 -35z m88 -77 c75 -128 84 -149 48 -106 -40 46 -128 189 -137 220
l-6 25 21 -24 c11 -13 44 -65 74 -115z m2839 92 c-44 -48 -87 -115 -127 -199
-39 -82 -95 -156 -96 -127 -1 60 118 251 202 322 52 45 61 46 21 4z m-1387
-125 c-13 -27 -34 -57 -47 -68 l-24 -20 21 25 c12 14 31 44 43 68 12 23 24 42
26 42 3 0 -6 -21 -19 -47z m14 -72 c-5 -11 -15 -23 -22 -27 -7 -5 -8 -2 -3 7
21 37 44 55 25 20z m1286 -35 c-5 -28 -3 -34 14 -39 25 -7 26 -27 0 -59 -16
-21 -25 -24 -56 -19 -21 3 -39 11 -41 17 -4 11 72 134 83 134 3 0 3 -15 0 -34z
m151 -49 c-15 -29 -43 -67 -164 -221 -70 -89 -106 -127 -137 -143 l-31 -16 18
21 c12 13 16 28 12 41 -3 11 0 30 7 43 22 39 187 235 203 241 8 4 31 29 52 58
35 49 37 51 47 30 7 -16 5 -30 -7 -54z m-1521 -53 c-11 -7 -22 -11 -25 -8 -3
3 3 12 13 20 11 7 22 11 25 8 3 -3 -3 -12 -13 -20z m-86 2 c0 -2 -7 -7 -16
-10 -8 -3 -12 -2 -9 4 6 10 25 14 25 6z m-266 -81 c56 -16 58 -17 37 -31 -19
-14 -27 -12 -106 31 -47 26 -85 48 -85 50 0 2 21 -5 48 -16 26 -10 73 -26 106
-34z m336 16 c0 -13 -26 -21 -63 -20 l-32 1 30 13 c35 16 65 19 65 6z m-1065
-90 c-7 -6 -75 60 -75 73 0 6 18 -7 40 -29 22 -21 37 -41 35 -44z m35 -85 c0
-6 -22 12 -50 39 -27 27 -50 54 -50 59 0 6 23 -12 50 -39 28 -27 50 -54 50
-59z m-409 77 c13 -16 12 -17 -3 -4 -10 7 -18 15 -18 17 0 8 8 3 21 -13z
m3115 -148 c-36 -77 -121 -175 -151 -175 -28 0 -16 20 58 98 40 42 83 98 97
125 39 74 36 35 -4 -48z m-91 -38 c-19 -29 -65 -63 -65 -47 0 11 73 81 78 75
2 -2 -4 -15 -13 -28z m-2549 -187 c16 -4 21 -9 11 -9 -9 -1 -45 -12 -80 -26
-89 -37 -570 -114 -583 -94 -5 8 76 69 121 91 27 13 149 41 230 52 46 6 268
-4 301 -14z m-236 -114 c0 -3 -26 -10 -57 -16 -32 -6 -88 -27 -125 -46 -37
-19 -71 -34 -77 -34 -19 0 -91 -54 -91 -68 0 -11 8 -13 36 -7 24 4 34 3 29 -4
-3 -6 -12 -11 -18 -11 -32 -1 -39 -17 -23 -49 9 -17 21 -31 26 -31 6 0 10 -4
10 -9 0 -12 -119 -22 -160 -12 l-35 8 30 12 c17 6 36 14 43 16 24 9 6 30 -27
33 -26 3 -31 7 -26 23 4 11 2 19 -4 19 -6 0 -11 7 -11 16 0 8 -17 22 -37 31
-48 19 -46 16 -32 47 14 31 69 39 69 9 0 -15 1 -15 18 0 10 10 29 17 41 17 13
0 78 9 145 20 109 17 231 35 264 39 6 0 12 -1 12 -3z m40 -541 c36 -7 98 -16
138 -20 l73 -7 -6 -42 c-4 -22 -9 -44 -11 -47 -13 -22 -254 80 -319 135 l-30
26 45 -16 c25 -8 74 -21 110 -29z m-591 -197 c-53 -58 -62 -85 -65 -195 -2
-100 -2 -103 23 -123 14 -11 30 -20 36 -20 5 0 -2 9 -17 21 -32 25 -33 47 -5
101 47 93 214 215 269 197 14 -4 68 -16 120 -25 148 -26 243 -70 339 -157 l42
-38 0 -87 c1 -92 -44 -306 -79 -380 -16 -34 -22 -37 -72 -45 -80 -12 -324 -1
-395 18 -33 9 -102 37 -154 62 -230 113 -410 297 -517 528 -40 87 -43 82 46
116 118 45 190 58 327 58 l132 1 -30 -32z m1651 -41 c0 -2 -10 -12 -22 -23
l-23 -19 19 23 c18 21 26 27 26 19z m-810 -182 c0 -8 -4 -17 -10 -20 -5 -3
-10 -34 -10 -68 0 -34 -7 -111 -15 -171 -7 -60 -11 -122 -8 -138 5 -24 3 -27
-11 -22 -36 14 -37 49 -6 205 17 82 30 170 30 194 0 35 3 43 15 39 8 -4 15
-12 15 -19z m585 15 c-3 -5 -12 -10 -18 -10 -7 0 -6 4 3 10 19 12 23 12 15 0z
m-192 -67 c-7 -2 -19 -2 -25 0 -7 3 -2 5 12 5 14 0 19 -2 13 -5z m-66 -9 c-3
-3 -12 -4 -19 -1 -8 3 -5 6 6 6 11 1 17 -2 13 -5z m841 -509 c-6 -14 -13 -23
-15 -21 -5 5 15 46 22 46 3 0 -1 -11 -7 -25z m-442 -106 c-20 -56 -34 -104
-32 -106 2 -2 18 21 35 52 17 30 33 55 36 55 17 0 -148 -314 -179 -340 -28
-22 -22 -6 81 239 24 55 32 85 25 90 -7 4 2 27 26 63 20 31 38 55 40 53 2 -2
-13 -49 -32 -106z m-242 57 c-3 -15 -8 -25 -11 -23 -2 3 -1 17 3 31 3 15 8 25
11 23 2 -3 1 -17 -3 -31z m-20 -70 c-3 -15 -8 -25 -11 -23 -2 3 -1 17 3 31 3
15 8 25 11 23 2 -3 1 -17 -3 -31z m1196 5 c-21 -41 -159 -218 -199 -256 -44
-42 -51 -42 -23 3 16 27 224 272 230 272 1 0 -2 -9 -8 -19z m-1216 -90 c-4
-17 -9 -30 -11 -27 -3 2 -2 19 2 36 9 41 17 33 9 -9z m-30 -140 c-10 -50 -20
-89 -22 -86 -3 2 3 45 13 95 10 50 20 89 22 86 2 -2 -4 -45 -13 -95z m1606 95
c0 -2 -8 -10 -17 -17 -16 -13 -17 -12 -4 4 13 16 21 21 21 13z m-589 -57 c20
-10 20 -11 3 -30 -19 -21 -32 -23 -53 -10 -10 7 -11 13 -2 30 13 24 23 26 52
10z m-1615 -145 c-14 -14 -18 -14 -31 0 -20 20 -19 25 13 59 l27 29 3 -36 c2
-23 -3 -42 -12 -52z m1859 16 c-9 -15 -45 -32 -45 -22 0 5 10 14 23 20 29 14
29 14 22 2z m-1290 -95 c-4 -36 -10 -64 -12 -61 -3 3 -2 35 2 71 4 37 9 64 12
62 3 -3 2 -35 -2 -72z"/>
<path d="M2992 5052 c-17 -13 -25 -31 -28 -63 -4 -42 -4 -43 7 -14 6 17 17 37
24 45 11 14 27 50 22 50 -1 0 -12 -8 -25 -18z"/>
<path d="M3175 5032 c-33 -16 -66 -36 -74 -45 -12 -15 -11 -17 9 -17 12 0 33
9 47 20 14 11 38 20 53 20 22 0 29 6 32 25 3 14 2 25 -1 25 -3 0 -33 -13 -66
-28z"/>
<path d="M3048 4914 c-5 -4 -8 -16 -8 -28 0 -14 3 -17 11 -9 6 6 9 19 7 28 -1
9 -6 13 -10 9z"/>
<path d="M2303 4055 c-68 -34 -163 -151 -163 -200 0 -14 7 -9 23 19 46 81 121
105 201 66 41 -21 47 -29 66 -86 19 -57 20 -71 11 -179 -11 -125 -15 -133 -84
-171 -28 -15 -28 -23 1 -56 13 -16 12 -19 -14 -29 -32 -12 -108 -15 -145 -5
l-24 7 24 -20 c32 -28 108 -28 164 0 23 12 44 23 46 25 2 2 -10 15 -25 29 -16
15 -24 28 -19 31 6 2 28 15 50 27 36 20 41 27 47 72 12 93 8 248 -8 290 -27
70 -43 119 -54 163 -13 50 -25 52 -97 17z m79 -15 c9 -23 8 -23 -12 -5 -22 20
-27 39 -8 33 6 -2 15 -15 20 -28z"/>
<path d="M4410 3938 c0 -177 -86 -508 -185 -713 -18 -38 -32 -71 -30 -73 8 -8
68 109 109 214 26 65 61 151 78 189 84 191 130 380 98 400 -9 5 -10 2 -6 -13
10 -29 -57 -292 -70 -279 -2 2 3 44 11 93 17 103 20 230 5 239 -6 4 -10 -17
-10 -57z"/>
<path d="M3922 3750 c-1 -8 5 -42 13 -75 7 -33 14 -49 14 -35 0 14 -6 48 -13
75 -8 28 -14 43 -14 35z"/>
<path d="M3902 3535 c0 -16 2 -22 5 -12 2 9 2 23 0 30 -3 6 -5 -1 -5 -18z"/>
<path d="M3953 3500 c0 -36 2 -50 4 -32 2 17 2 47 0 65 -2 17 -4 3 -4 -33z"/>
<path d="M3913 3435 c0 -27 2 -38 4 -22 2 15 2 37 0 50 -2 12 -4 0 -4 -28z"/>
<path d="M3901 3350 c-1 -33 -23 -175 -36 -230 -3 -14 1 -8 10 13 17 45 39
195 32 229 -3 16 -5 13 -6 -12z"/>
<path d="M3215 3250 c3 -5 8 -10 11 -10 2 0 4 5 4 10 0 6 -5 10 -11 10 -5 0
-7 -4 -4 -10z"/>
<path d="M3026 3208 c-10 -22 10 -110 35 -158 22 -43 24 -35 3 15 -8 21 -19
65 -23 99 -5 41 -10 55 -15 44z"/>
<path d="M3127 3066 c-4 -10 -5 -21 -2 -24 9 -9 17 6 13 25 -3 17 -4 17 -11
-1z"/>
<path d="M3145 2998 c4 -13 13 -29 21 -37 11 -12 11 -9 2 22 -6 20 -15 37 -20
37 -5 0 -6 -10 -3 -22z"/>
<path d="M2060 3036 c0 -3 15 -15 33 -27 23 -17 28 -18 18 -6 -14 18 -51 42
-51 33z"/>
<path d="M2065 2900 c10 -11 20 -20 23 -20 3 0 -3 9 -13 20 -10 11 -20 20 -23
20 -3 0 3 -9 13 -20z"/>
<path d="M1574 2828 l-19 -23 23 19 c21 18 27 26 19 26 -2 0 -12 -10 -23 -22z"/>
<path d="M2305 2790 c10 -11 20 -20 23 -20 3 0 -3 9 -13 20 -10 11 -20 20 -23
20 -3 0 3 -9 13 -20z"/>
<path d="M1529 2773 l-24 -28 28 24 c25 23 32 31 24 31 -2 0 -14 -12 -28 -27z"/>
<path d="M4600 6710 c0 -5 5 -10 10 -10 6 0 10 5 10 10 0 6 -4 10 -10 10 -5 0
-10 -4 -10 -10z"/>
<path d="M760 3090 c0 -5 9 -10 20 -10 11 0 20 5 20 10 0 6 -9 10 -20 10 -11
0 -20 -4 -20 -10z"/>
<path d="M725 3070 c-3 -5 -1 -10 4 -10 6 0 11 5 11 10 0 6 -2 10 -4 10 -3 0
-8 -4 -11 -10z"/>
<path d="M0 1494 l0 -65 35 26 c19 15 37 36 41 47 8 25 -22 58 -53 58 -22 0
-23 -3 -23 -66z"/>
<path d="M22 1297 c-21 -22 -22 -33 -22 -190 0 -92 3 -167 8 -167 18 0 54 34
78 76 44 76 71 285 38 298 -35 13 -81 6 -102 -17z"/>
<path d="M192 1244 c-16 -11 -22 -25 -22 -53 0 -44 29 -89 49 -76 19 11 41 70
41 110 0 30 -3 35 -23 35 -12 0 -33 -7 -45 -16z"/>
<path d="M316 1208 c-25 -39 -30 -92 -11 -108 15 -13 21 -11 46 18 31 34 45
73 35 97 -8 23 -53 18 -70 -7z"/>
</g>
</svg>
